<svg width="92" height="118" viewBox="0 0 92 118" fill="none" xmlns="http://www.w3.org/2000/svg">
<path d="M20.3171 18.9931C20.3171 24.0991 19.1535 28.6723 17.3232 31.9339C15.475 35.2273 13.0789 36.9862 10.6585 36.9862C8.23819 36.9862 5.84206 35.2273 3.99388 31.9339C2.16355 28.6723 1 24.0991 1 18.9931C1 13.8871 2.16355 9.31391 3.99388 6.05234C5.84206 2.75895 8.23819 1 10.6585 1C13.0789 1 15.475 2.75895 17.3232 6.05234C19.1535 9.31391 20.3171 13.8871 20.3171 18.9931Z" fill="white" stroke="#5152B7" stroke-width="2"/>
<path d="M90.9999 18.9931C90.9999 24.0991 89.8364 28.6723 88.0061 31.9339C86.1579 35.2273 83.7617 36.9862 81.3414 36.9862C78.9211 36.9862 76.5249 35.2273 74.6767 31.9339C72.8464 28.6723 71.6829 24.0991 71.6829 18.9931C71.6829 13.8871 72.8464 9.31391 74.6767 6.05234C76.5249 2.75895 78.9211 1 81.3414 1C83.7617 1 86.1579 2.75895 88.0061 6.05234C89.8364 9.31391 90.9999 13.8871 90.9999 18.9931Z" fill="white" stroke="#5152B7" stroke-width="2"/>
<path d="M88.0733 81C88.0733 65.5741 68.5582 59.2138 46.5611 59.2138C24.564 59.2138 5.60986 65.5741 5.60986 81" stroke="#5152B7" stroke-width="2"/>
<path d="M87 105.232C89.2863 108.63 90.75 110.996 90.75 113.046C90.75 115.089 89.0681 116.75 87 116.75C84.9319 116.75 83.25 115.089 83.25 113.047C83.25 110.996 84.7131 108.63 87 105.232ZM87 103C83.9563 107.498 82 110.312 82 113.047C82 115.783 84.2369 118 87 118C89.7631 118 92 115.783 92 113.047C92 110.312 90.0437 107.498 87 103Z" fill="#5152B7"/>
</svg>
