<svg width="183" height="28" viewBox="0 0 183 28" fill="none" xmlns="http://www.w3.org/2000/svg">
<path d="M19.5508 24.2578C18.9063 25.1484 17.7754 25.8867 16.1582 26.4727C14.541 27.0586 12.7598 27.3516 10.8145 27.3516C8.91602 27.3516 7.22266 26.8887 5.73438 25.9629C4.24609 25.0371 3.08008 23.7305 2.23633 22.043C1.4043 20.3555 0.976562 18.4453 0.953125 16.3125V11.918C0.953125 9.82031 1.35742 7.93945 2.16602 6.27539C2.97461 4.61133 4.11133 3.32813 5.57617 2.42578C7.04102 1.51172 8.6875 1.05469 10.5156 1.05469C13.0586 1.05469 15.127 1.70508 16.7207 3.00586C18.3262 4.30664 19.2578 6.08203 19.5156 8.33203H18.5664C18.25 6.29297 17.4004 4.72852 16.0176 3.63867C14.6348 2.54883 12.8008 2.00391 10.5156 2.00391C7.9375 2.00391 5.85742 2.92383 4.27539 4.76367C2.69336 6.60351 1.90234 9.02344 1.90234 12.0234V16.1016C1.90234 18.1055 2.27148 19.8926 3.00977 21.4629C3.75977 23.0332 4.80859 24.252 6.15625 25.1191C7.51562 25.9746 9.06836 26.4023 10.8145 26.4023C12.5254 26.4023 14.1133 26.1504 15.5781 25.6465C17.043 25.1426 18.0508 24.5332 18.6016 23.8184V16.3652H10.7793V15.3984H19.5508V24.2578ZM26.916 27H25.9668V7.98047H26.916V27ZM25.4746 2.03906C25.4746 1.76953 25.5684 1.54101 25.7559 1.35352C25.9434 1.1543 26.1719 1.05469 26.4414 1.05469C26.7109 1.05469 26.9395 1.1543 27.127 1.35352C27.3262 1.54101 27.4258 1.76953 27.4258 2.03906C27.4258 2.30859 27.3262 2.53711 27.127 2.72461C26.9395 2.91211 26.7109 3.00586 26.4414 3.00586C26.1719 3.00586 25.9434 2.91211 25.7559 2.72461C25.5684 2.53711 25.4746 2.30859 25.4746 2.03906ZM35.2832 2.84766V7.98047H39.6074V8.94727H35.2832V22.4473C35.2832 23.7949 35.5 24.791 35.9336 25.4355C36.3789 26.0801 37.1172 26.4023 38.1484 26.4023C38.6641 26.4023 39.291 26.3496 40.0293 26.2441L40.1875 27.1406C39.8008 27.2812 39.1387 27.3516 38.2012 27.3516C36.8184 27.3516 35.8281 26.9707 35.2305 26.209C34.6328 25.4355 34.3281 24.2227 34.3164 22.5703V8.94727H30.8008V7.98047H34.3164V2.84766H35.2832ZM45.4961 12.4102C46.1172 10.9336 47.0313 9.76758 48.2383 8.91211C49.4453 8.05664 50.7813 7.62891 52.2461 7.62891C54.2852 7.62891 55.7969 8.20898 56.7812 9.36914C57.7773 10.5176 58.2812 12.2578 58.293 14.5898V27H57.3438V14.5547C57.332 12.5156 56.916 11.0098 56.0957 10.0371C55.2754 9.05273 53.9746 8.56055 52.1934 8.56055C50.5527 8.56055 49.1289 9.14648 47.9219 10.3184C46.7266 11.4785 45.918 12.9785 45.4961 14.8184V27H44.5469V0H45.4961V12.4102ZM77.0137 27V23.9238C76.4512 24.9785 75.6309 25.8164 74.5527 26.4375C73.4746 27.0469 72.1094 27.3516 70.457 27.3516C68.3828 27.3516 66.8242 26.748 65.7812 25.541C64.75 24.3223 64.2227 22.5527 64.1992 20.2324V7.98047H65.1484V20.2676C65.1719 22.2832 65.6289 23.8125 66.5195 24.8555C67.4102 25.8867 68.7109 26.4023 70.4219 26.4023C72.2383 26.4023 73.7148 25.9746 74.8516 25.1191C75.9883 24.2637 76.709 23.0098 77.0137 21.3574V7.98047H77.9805V27H77.0137ZM98.5293 17.666C98.5293 20.6309 97.8906 22.9863 96.6133 24.7324C95.3359 26.4785 93.5957 27.3516 91.3926 27.3516C89.9629 27.3516 88.6855 27.0586 87.5605 26.4727C86.4355 25.875 85.5508 25.0488 84.9062 23.9941V27H83.957V0H84.9062V11.4434C85.5742 10.1895 86.4531 9.24023 87.543 8.5957C88.6445 7.95117 89.916 7.62891 91.3574 7.62891C93.584 7.62891 95.3359 8.48437 96.6133 10.1953C97.8906 11.8945 98.5293 14.2852 98.5293 17.3672V17.666ZM97.5449 17.2969C97.5449 14.5664 97 12.4336 95.9102 10.8984C94.832 9.35156 93.3203 8.57812 91.375 8.57812C89.7813 8.57812 88.4277 8.98828 87.3145 9.80859C86.2129 10.6289 85.4102 11.8477 84.9062 13.4648V22.1836C85.4102 23.5313 86.2129 24.5742 87.3145 25.3125C88.4277 26.0391 89.793 26.4023 91.4102 26.4023C93.3672 26.4023 94.8789 25.623 95.9453 24.0645C97.0117 22.5059 97.5449 20.25 97.5449 17.2969Z" fill="#4F4F4F"/>
<path d="M111.203 15.5918C108.309 14.7598 106.199 13.7402 104.875 12.5332C103.562 11.3145 102.906 9.81445 102.906 8.0332C102.906 6.01758 103.709 4.35351 105.314 3.04102C106.932 1.7168 109.029 1.05469 111.607 1.05469C113.365 1.05469 114.93 1.39453 116.301 2.07422C117.684 2.75391 118.75 3.69141 119.5 4.88672C120.262 6.08203 120.643 7.38867 120.643 8.80664H117.25C117.25 7.25977 116.758 6.04688 115.773 5.16797C114.789 4.27734 113.4 3.83203 111.607 3.83203C109.943 3.83203 108.643 4.20117 107.705 4.93945C106.779 5.66602 106.316 6.67969 106.316 7.98047C106.316 9.02344 106.756 9.9082 107.635 10.6348C108.525 11.3496 110.031 12.0059 112.152 12.6035C114.285 13.2012 115.949 13.8633 117.145 14.5898C118.352 15.3047 119.242 16.1426 119.816 17.1035C120.402 18.0645 120.695 19.1953 120.695 20.4961C120.695 22.5703 119.887 24.2344 118.27 25.4883C116.652 26.7305 114.49 27.3516 111.783 27.3516C110.025 27.3516 108.385 27.0176 106.861 26.3496C105.338 25.6699 104.16 24.7441 103.328 23.5723C102.508 22.4004 102.098 21.0703 102.098 19.582H105.49C105.49 21.1289 106.059 22.3535 107.195 23.2559C108.344 24.1465 109.873 24.5918 111.783 24.5918C113.564 24.5918 114.93 24.2285 115.879 23.502C116.828 22.7754 117.303 21.7852 117.303 20.5312C117.303 19.2773 116.863 18.3105 115.984 17.6309C115.105 16.9395 113.512 16.2598 111.203 15.5918ZM128.939 3.375V7.98047H132.49V10.4941H128.939V22.2891C128.939 23.0508 129.098 23.625 129.414 24.0117C129.73 24.3867 130.27 24.5742 131.031 24.5742C131.406 24.5742 131.922 24.5039 132.578 24.3633V27C131.723 27.2344 130.891 27.3516 130.082 27.3516C128.629 27.3516 127.533 26.9121 126.795 26.0332C126.057 25.1543 125.688 23.9062 125.688 22.2891V10.4941H122.225V7.98047H125.688V3.375H128.939ZM148.047 27C147.859 26.625 147.707 25.957 147.59 24.9961C146.078 26.5664 144.273 27.3516 142.176 27.3516C140.301 27.3516 138.76 26.8242 137.553 25.7695C136.357 24.7031 135.76 23.3555 135.76 21.7266C135.76 19.7461 136.51 18.2109 138.01 17.1211C139.521 16.0195 141.643 15.4688 144.373 15.4688H147.537V13.9746C147.537 12.8379 147.197 11.9355 146.518 11.2676C145.838 10.5879 144.836 10.248 143.512 10.248C142.352 10.248 141.379 10.541 140.594 11.127C139.809 11.7129 139.416 12.4219 139.416 13.2539H136.146C136.146 12.3047 136.48 11.3906 137.148 10.5117C137.828 9.62109 138.742 8.91797 139.891 8.40234C141.051 7.88672 142.322 7.62891 143.705 7.62891C145.896 7.62891 147.613 8.17969 148.855 9.28125C150.098 10.3711 150.742 11.877 150.789 13.7988V22.5527C150.789 24.2988 151.012 25.6875 151.457 26.7188V27H148.047ZM142.65 24.5215C143.67 24.5215 144.637 24.2578 145.551 23.7305C146.465 23.2031 147.127 22.5176 147.537 21.6738V17.7715H144.988C141.004 17.7715 139.012 18.9375 139.012 21.2695C139.012 22.2891 139.352 23.0859 140.031 23.6602C140.711 24.2344 141.584 24.5215 142.65 24.5215ZM165.08 10.8984C164.588 10.8164 164.055 10.7754 163.48 10.7754C161.348 10.7754 159.9 11.6836 159.139 13.5V27H155.887V7.98047H159.051L159.104 10.1777C160.17 8.47852 161.682 7.62891 163.639 7.62891C164.271 7.62891 164.752 7.71094 165.08 7.875V10.8984ZM179.16 21.9551C179.16 21.0762 178.826 20.3965 178.158 19.916C177.502 19.4238 176.348 19.002 174.695 18.6504C173.055 18.2988 171.748 17.877 170.775 17.3848C169.814 16.8926 169.1 16.3066 168.631 15.627C168.174 14.9473 167.945 14.1387 167.945 13.2012C167.945 11.6426 168.602 10.3242 169.914 9.24609C171.238 8.16797 172.926 7.62891 174.977 7.62891C177.133 7.62891 178.879 8.18555 180.215 9.29883C181.563 10.4121 182.236 11.8359 182.236 13.5703H178.967C178.967 12.6797 178.586 11.9121 177.824 11.2676C177.074 10.623 176.125 10.3008 174.977 10.3008C173.793 10.3008 172.867 10.5586 172.199 11.0742C171.531 11.5898 171.197 12.2637 171.197 13.0957C171.197 13.8809 171.508 14.4727 172.129 14.8711C172.75 15.2695 173.869 15.6504 175.486 16.0137C177.115 16.377 178.434 16.8105 179.441 17.3145C180.449 17.8184 181.193 18.4277 181.674 19.1426C182.166 19.8457 182.412 20.707 182.412 21.7266C182.412 23.4258 181.732 24.791 180.373 25.8223C179.014 26.8418 177.25 27.3516 175.082 27.3516C173.559 27.3516 172.211 27.082 171.039 26.543C169.867 26.0039 168.947 25.2539 168.279 24.293C167.623 23.3203 167.295 22.2715 167.295 21.1465H170.547C170.605 22.2363 171.039 23.1035 171.848 23.748C172.668 24.3809 173.746 24.6973 175.082 24.6973C176.312 24.6973 177.297 24.4512 178.035 23.959C178.785 23.4551 179.16 22.7871 179.16 21.9551Z" fill="#5253B8"/>
</svg>
