<svg width="203" height="26" viewBox="0 0 203 26" fill="none" xmlns="http://www.w3.org/2000/svg">
<path d="M16.5469 2.25V17.7812C16.5365 19.3125 16.1979 20.6458 15.5312 21.7812C14.8646 22.9167 13.9219 23.7917 12.7031 24.4062C11.4948 25.0104 10.1042 25.3125 8.53125 25.3125C6.13542 25.3125 4.21354 24.6615 2.76562 23.3594C1.32812 22.0469 0.583333 20.2344 0.53125 17.9219V2.25H2.4375V17.6406C2.4375 19.5573 2.98438 21.0469 4.07812 22.1094C5.17188 23.1615 6.65625 23.6875 8.53125 23.6875C10.4062 23.6875 11.8854 23.1562 12.9688 22.0938C14.0625 21.0312 14.6094 19.5521 14.6094 17.6562V2.25H16.5469ZM31.5938 20.7031C31.5938 19.776 31.2188 19.0312 30.4688 18.4688C29.7292 17.9062 28.6094 17.4688 27.1094 17.1562C25.6094 16.8333 24.4427 16.4688 23.6094 16.0625C22.7865 15.6458 22.1719 15.1406 21.7656 14.5469C21.3698 13.9531 21.1719 13.2344 21.1719 12.3906C21.1719 11.0573 21.7292 9.95833 22.8438 9.09375C23.9583 8.21875 25.3854 7.78125 27.125 7.78125C29.0104 7.78125 30.5208 8.25 31.6562 9.1875C32.8021 10.1146 33.375 11.3281 33.375 12.8281H31.5C31.5 11.8385 31.0833 11.0156 30.25 10.3594C29.4271 9.70312 28.3854 9.375 27.125 9.375C25.8958 9.375 24.9062 9.65104 24.1562 10.2031C23.4167 10.7448 23.0469 11.4531 23.0469 12.3281C23.0469 13.1719 23.3542 13.8281 23.9688 14.2969C24.5938 14.7552 25.724 15.1771 27.3594 15.5625C29.0052 15.9479 30.2344 16.3594 31.0469 16.7969C31.8698 17.2344 32.4792 17.7604 32.875 18.375C33.2708 18.9896 33.4688 19.7344 33.4688 20.6094C33.4688 22.0365 32.8906 23.1771 31.7344 24.0312C30.5885 24.8854 29.0885 25.3125 27.2344 25.3125C25.2656 25.3125 23.6667 24.8385 22.4375 23.8906C21.2188 22.9323 20.6094 21.724 20.6094 20.2656H22.4844C22.5573 21.3594 23.0156 22.2135 23.8594 22.8281C24.7135 23.4323 25.8385 23.7344 27.2344 23.7344C28.5365 23.7344 29.5885 23.4479 30.3906 22.875C31.1927 22.3021 31.5938 21.5781 31.5938 20.7031ZM44.2344 25.3125C42.7969 25.3125 41.4948 24.9583 40.3281 24.25C39.1719 23.5417 38.2708 22.5573 37.625 21.2969C36.9792 20.026 36.6562 18.6042 36.6562 17.0312V16.3594C36.6562 14.7344 36.9688 13.2708 37.5938 11.9688C38.2292 10.6667 39.1094 9.64583 40.2344 8.90625C41.3594 8.15625 42.5781 7.78125 43.8906 7.78125C45.9427 7.78125 47.5677 8.48438 48.7656 9.89062C49.974 11.2865 50.5781 13.1979 50.5781 15.625V16.6719H38.5156V17.0312C38.5156 18.9479 39.0625 20.5469 40.1562 21.8281C41.2604 23.099 42.6458 23.7344 44.3125 23.7344C45.3125 23.7344 46.1927 23.5521 46.9531 23.1875C47.724 22.8229 48.4219 22.2396 49.0469 21.4375L50.2188 22.3281C48.8438 24.3177 46.849 25.3125 44.2344 25.3125ZM43.8906 9.375C42.4844 9.375 41.2969 9.89062 40.3281 10.9219C39.3698 11.9531 38.7865 13.3385 38.5781 15.0781H48.7188V14.875C48.6667 13.25 48.2031 11.9271 47.3281 10.9062C46.4531 9.88542 45.3073 9.375 43.8906 9.375ZM62.0312 9.6875C61.6354 9.61458 61.2135 9.57812 60.7656 9.57812C59.599 9.57812 58.6094 9.90625 57.7969 10.5625C56.9948 11.2083 56.4219 12.151 56.0781 13.3906V25H54.2188V8.09375H56.0469L56.0781 10.7812C57.0677 8.78125 58.6562 7.78125 60.8438 7.78125C61.3646 7.78125 61.776 7.84896 62.0781 7.98438L62.0312 9.6875ZM74.5625 8.09375L74.625 10.9844C75.2604 9.94271 76.0521 9.15104 77 8.60938C77.9479 8.05729 78.9948 7.78125 80.1406 7.78125C81.9531 7.78125 83.3021 8.29167 84.1875 9.3125C85.0729 10.3333 85.5208 11.8646 85.5312 13.9062V25H83.6719V13.8906C83.6615 12.3802 83.3385 11.2552 82.7031 10.5156C82.0781 9.77604 81.0729 9.40625 79.6875 9.40625C78.5312 9.40625 77.5052 9.77083 76.6094 10.5C75.724 11.2188 75.0677 12.1927 74.6406 13.4219V25H72.7812V8.09375H74.5625ZM89.3438 16.2969C89.3438 14.6719 89.6562 13.2083 90.2812 11.9062C90.9167 10.6042 91.8073 9.59375 92.9531 8.875C94.1094 8.14583 95.4167 7.78125 96.875 7.78125C99.125 7.78125 100.948 8.57292 102.344 10.1562C103.74 11.7292 104.438 13.8177 104.438 16.4219V16.8125C104.438 18.4479 104.12 19.9219 103.484 21.2344C102.859 22.5365 101.974 23.5417 100.828 24.25C99.6823 24.9583 98.375 25.3125 96.9062 25.3125C94.6667 25.3125 92.8438 24.526 91.4375 22.9531C90.0417 21.3698 89.3438 19.276 89.3438 16.6719V16.2969ZM91.2188 16.8125C91.2188 18.8333 91.7396 20.4948 92.7812 21.7969C93.8333 23.0885 95.2083 23.7344 96.9062 23.7344C98.5938 23.7344 99.9583 23.0885 101 21.7969C102.052 20.4948 102.578 18.7812 102.578 16.6562V16.2969C102.578 15.0052 102.339 13.8229 101.859 12.75C101.38 11.6771 100.708 10.849 99.8438 10.2656C98.9792 9.67188 97.9896 9.375 96.875 9.375C95.2083 9.375 93.849 10.0312 92.7969 11.3438C91.7448 12.6458 91.2188 14.3542 91.2188 16.4688V16.8125ZM111.219 3.76562V8.09375H114.719V9.625H111.219V20.8906C111.219 21.8281 111.385 22.526 111.719 22.9844C112.062 23.4427 112.63 23.6719 113.422 23.6719C113.734 23.6719 114.24 23.6198 114.938 23.5156L115.016 25.0469C114.526 25.224 113.859 25.3125 113.016 25.3125C111.734 25.3125 110.802 24.9427 110.219 24.2031C109.635 23.4531 109.344 22.3542 109.344 20.9062V9.625H106.234V8.09375H109.344V3.76562H111.219ZM127.719 25V9.625H124.922V8.09375H127.719V6.04688C127.719 4.31771 128.156 2.98958 129.031 2.0625C129.917 1.13542 131.146 0.671875 132.719 0.671875C133.427 0.671875 134.089 0.760416 134.703 0.9375L134.562 2.5C134.042 2.375 133.474 2.3125 132.859 2.3125C131.828 2.3125 131.026 2.63542 130.453 3.28125C129.88 3.91667 129.594 4.82292 129.594 6V8.09375H133.625V9.625H129.594V25H127.719ZM135.938 16.2969C135.938 14.6719 136.25 13.2083 136.875 11.9062C137.51 10.6042 138.401 9.59375 139.547 8.875C140.703 8.14583 142.01 7.78125 143.469 7.78125C145.719 7.78125 147.542 8.57292 148.938 10.1562C150.333 11.7292 151.031 13.8177 151.031 16.4219V16.8125C151.031 18.4479 150.714 19.9219 150.078 21.2344C149.453 22.5365 148.568 23.5417 147.422 24.25C146.276 24.9583 144.969 25.3125 143.5 25.3125C141.26 25.3125 139.438 24.526 138.031 22.9531C136.635 21.3698 135.938 19.276 135.938 16.6719V16.2969ZM137.812 16.8125C137.812 18.8333 138.333 20.4948 139.375 21.7969C140.427 23.0885 141.802 23.7344 143.5 23.7344C145.188 23.7344 146.552 23.0885 147.594 21.7969C148.646 20.4948 149.172 18.7812 149.172 16.6562V16.2969C149.172 15.0052 148.932 13.8229 148.453 12.75C147.974 11.6771 147.302 10.849 146.438 10.2656C145.573 9.67188 144.583 9.375 143.469 9.375C141.802 9.375 140.443 10.0312 139.391 11.3438C138.339 12.6458 137.812 14.3542 137.812 16.4688V16.8125ZM165.781 22.8594C164.656 24.4948 162.859 25.3125 160.391 25.3125C158.589 25.3125 157.219 24.7917 156.281 23.75C155.344 22.6979 154.865 21.1458 154.844 19.0938V8.09375H156.703V18.8594C156.703 22.0781 158.005 23.6875 160.609 23.6875C163.318 23.6875 165.031 22.5677 165.75 20.3281V8.09375H167.625V25H165.812L165.781 22.8594ZM174.281 8.09375L174.344 10.9844C174.979 9.94271 175.771 9.15104 176.719 8.60938C177.667 8.05729 178.714 7.78125 179.859 7.78125C181.672 7.78125 183.021 8.29167 183.906 9.3125C184.792 10.3333 185.24 11.8646 185.25 13.9062V25H183.391V13.8906C183.38 12.3802 183.057 11.2552 182.422 10.5156C181.797 9.77604 180.792 9.40625 179.406 9.40625C178.25 9.40625 177.224 9.77083 176.328 10.5C175.443 11.2188 174.786 12.1927 174.359 13.4219V25H172.5V8.09375H174.281ZM189.344 16.3906C189.344 13.7656 189.927 11.6771 191.094 10.125C192.271 8.5625 193.865 7.78125 195.875 7.78125C198.156 7.78125 199.896 8.68229 201.094 10.4844V1H202.953V25H201.203L201.125 22.75C199.927 24.4583 198.167 25.3125 195.844 25.3125C193.896 25.3125 192.323 24.5312 191.125 22.9688C189.938 21.3958 189.344 19.276 189.344 16.6094V16.3906ZM191.234 16.7188C191.234 18.875 191.667 20.5781 192.531 21.8281C193.396 23.0677 194.615 23.6875 196.188 23.6875C198.49 23.6875 200.125 22.6719 201.094 20.6406V12.7031C200.125 10.5052 198.5 9.40625 196.219 9.40625C194.646 9.40625 193.422 10.026 192.547 11.2656C191.672 12.4948 191.234 14.3125 191.234 16.7188Z" fill="#4F4F4F"/>
</svg>
